<?xml version="1.0" encoding="UTF-8"?><svg id="Layer_2" xmlns="http://www.w3.org/2000/svg" xmlns:xlink="http://www.w3.org/1999/xlink" viewBox="0 0 934.6253 202.095"><defs><linearGradient id="linear-gradient" x1="80.7497" y1="13.7371" x2="80.7497" y2="183.2807" gradientUnits="userSpaceOnUse"><stop offset="0" stop-color="#d8c5fd"/><stop offset="1" stop-color="#fff2d9"/></linearGradient><linearGradient id="linear-gradient-2" x1="80.7497" y1="13.7371" x2="80.7497" y2="183.2807" xlink:href="#linear-gradient"/><linearGradient id="linear-gradient-3" x1="737.5693" y1="13.7371" x2="737.5693" y2="183.2807" xlink:href="#linear-gradient"/><linearGradient id="linear-gradient-4" x1="297.3688" y1="13.7371" x2="297.3688" y2="183.2807" xlink:href="#linear-gradient"/><linearGradient id="linear-gradient-5" x1="459.3333" y1="13.7371" x2="459.3333" y2="183.2807" xlink:href="#linear-gradient"/><linearGradient id="linear-gradient-6" x1="595.6578" y1="13.7371" x2="595.6578" y2="183.2807" xlink:href="#linear-gradient"/><linearGradient id="linear-gradient-7" x1="875.3855" y1="13.7371" x2="875.3855" y2="183.2807" xlink:href="#linear-gradient"/></defs><g id="Components"><g id="_92dc1e62-b16b-41a0-989e-9b485de198bc_13"><path d="M161.4993,180.066H0v22.029h161.4993v-22.029Z" style="fill:url(#linear-gradient);"/><path d="M80.7494,161.499c44.5179,0,80.7499-36.217,80.7499-80.7495S125.2673,0,80.7494,0,0,36.2173,0,80.7495s36.2173,80.7495,80.7494,80.7495ZM80.7494,21.3685c32.7419,0,59.3809,26.6389,59.3809,59.381s-26.639,59.3805-59.3809,59.3805-59.3809-26.638-59.3809-59.3805,26.6389-59.381,59.3809-59.381Z" style="fill:url(#linear-gradient-2);"/><path d="M776.1703,155.078v-63.5454c0-21.3111-17.275-38.6012-38.601-38.6012s-38.601,17.2757-38.601,38.6012v63.5454h-24.858v-63.5454c0-35.0398,28.405-63.4594,63.459-63.4594s63.459,28.4052,63.459,63.4594v63.5454h-24.858Z" style="fill:url(#linear-gradient-3);"/><path d="M211.0693,159.575v-77.6337c0-27.2707,22.101-49.3716,49.371-49.3716,14.706,0,27.903,6.4192,36.936,16.6152,9.047-10.196,22.244-16.6152,36.935-16.6152,27.271,0,49.372,22.1009,49.372,49.3716v77.6337h-24.858v-77.6337c0-13.542-10.972-24.5135-24.514-24.5135s-24.513,10.9715-24.513,24.5135v77.6337h-24.859v-77.6337c0-13.542-10.971-24.5135-24.513-24.5135s-24.513,10.9715-24.513,24.5135v77.6337h-24.859.015Z" style="fill:url(#linear-gradient-4);"/><path d="M497.9343,96.0708c0-21.3111-17.276-38.6012-38.601-38.6012s-38.601,17.2758-38.601,38.6012,17.276,38.6012,38.601,38.6012,38.601-17.276,38.601-38.6012ZM522.7923,96.0708c0,35.0542-28.405,63.4592-63.459,63.4592s-63.459-28.405-63.459-63.4592,28.405-63.4593,63.459-63.4593,63.459,28.4052,63.459,63.4593Z" style="fill:url(#linear-gradient-5);"/><path d="M634.2443,96.0708c0-21.3111-17.275-38.6012-38.601-38.6012s-38.601,17.2758-38.601,38.6012,17.276,38.6012,38.601,38.6012,38.601-17.276,38.601-38.6012ZM659.1173,96.0708c0,35.0542-28.405,63.4592-63.459,63.4592s-63.46-28.405-63.46-63.4592,28.405-63.4593,63.46-63.4593,63.459,28.4052,63.459,63.4593Z" style="fill:url(#linear-gradient-6);"/><path d="M841.0093,37.3069v65.5561c-.79,45.365,67.968,46.614,68.758,1.307V37.3069h24.858v101.3281c0,35.054-28.405,63.459-63.459,63.459h-38.659v-24.858h38.659c15.897,0,29.554-9.607,35.471-23.35-9.364,5.845-20.45,9.133-32.283,8.932-32.642-.574-58.649-27.428-58.203-60.056V37.3069h24.858Z" style="fill:url(#linear-gradient-7);"/></g></g></svg>